# xmcd CD database file
#
# Track frame offsets:
#	150
#	23100
#	45278
#	63452
#	83997
#	100079
#	117998
#	133958
#	151435
#	181668
#	201947
#	221570
#	245703
#
# Disc length: 3495 seconds
#
# Revision: 0
# Processed by: cddbd v1.5.2PL0 Copyright (c) Steve Scherf et al.
# Submitted via: CDex 1.70beta2
#
DISCID=b40da50d
DTITLE=Doc Nice and Muddy Feet - In Brandenburg
DYEAR=2013
DGENRE=Blues
TTITLE0=In Brandenburg
TTITLE1=Groovejogger
TTITLE2=Harte Zeiten
TTITLE3=Mambo
TTITLE4=Rad Rambo
TTITLE5=Preussenreggae
TTITLE6=Rudi die Rakete
TTITLE7=Angie`s Farm
TTITLE8=Sie machen und fertig
TTITLE9=Arsch
TTITLE10=Jessie verlässt Ricardo
TTITLE11=Tanz auf dem Vulkan
TTITLE12=Streespatienten
EXTD=YEAR: 2013
EXTT0=
EXTT1=
EXTT2=
EXTT3=
EXTT4=
EXTT5=
EXTT6=
EXTT7=
EXTT8=
EXTT9=
EXTT10=
EXTT11=
EXTT12=
PLAYORDER=
